<svg xmlns="http://www.w3.org/2000/svg" viewBox="0 0 64 64" id="aries"><path d="M36 38.526a8.319 8.319 0 0 0 .974 3.876l2.339-6.629A11.96 11.96 0 0 0 40 31.767c0-.112-.014-.221-.017-.332A8.261 8.261 0 0 0 36 38.526zm-11.983-7.091c0 .111-.017.22-.017.332a11.96 11.96 0 0 0 .687 4.006l2.339 6.627a8.271 8.271 0 0 0-3.009-10.967z"></path><path d="M34 38.526a10.259 10.259 0 0 1 5.741-9.247 11.977 11.977 0 0 0-.779-2.4l-.846-1.9a6.693 6.693 0 0 0-12.232 0l-.846 1.9a11.977 11.977 0 0 0-.779 2.4 10.318 10.318 0 0 1 4.382 14.366l-.727 1.271 1.031 2.922a3.239 3.239 0 0 0 6.11 0l1.031-2.922-.727-1.271A10.341 10.341 0 0 1 34 38.526zM20.62 21.192a7.841 7.841 0 0 0-5.238-1.117l.375 6A4.444 4.444 0 0 1 16.5 26h1.882l2.365-4.729zm-6.814 5.726-.394-6.3a7.8 7.8 0 0 0-3.961 3.714l-.137.274 3.6 3.2a4.5 4.5 0 0 1 .892-.888zM12 30.5a4.43 4.43 0 0 1 .077-.76l-3.625-3.223a8.123 8.123 0 0 0 .25 5.975l3.528-.641A4.446 4.446 0 0 1 12 30.5zm-2.2 3.825A7.2 7.2 0 0 0 15.4 37a3.606 3.606 0 0 0 3.232-2H16.5a4.484 4.484 0 0 1-3.175-1.315zm14.586-10.779-1.936-1.21L20.618 26h2.621l.817-1.837c.095-.216.218-.413.33-.617zm15.228 0c.112.2.235.4.33.617L40.761 26h2.621l-1.832-3.664zM47.5 35h-2.133a3.6 3.6 0 0 0 3.233 2 7.2 7.2 0 0 0 5.6-2.675l-3.522-.64A4.484 4.484 0 0 1 47.5 35z"></path><path d="M32 3a29 29 0 1 0 29 29A29.033 29.033 0 0 0 32 3Zm16.6 36a5.6 5.6 0 0 1-5.442-4.248l-.128-.51A1 1 0 0 1 44 33h3.5a2.5 2.5 0 0 0 0-5h-6.032a13.844 13.844 0 0 1-.268 8.439L36.941 48.5a5.239 5.239 0 0 1-9.882 0L22.8 36.439A13.844 13.844 0 0 1 22.532 28H16.5a2.5 2.5 0 0 0 0 5H20a1 1 0 0 1 .971 1.242l-.127.509A5.6 5.6 0 0 1 15.4 39a9.205 9.205 0 0 1-7.674-4.108 10.278 10.278 0 0 1-.642-10.3l.577-1.154a9.843 9.843 0 0 1 14.02-3.938l3.85 2.407a8.66 8.66 0 0 1 12.938 0l3.85-2.406a9.842 9.842 0 0 1 14.019 3.939l.577 1.153a10.28 10.28 0 0 1-.642 10.3A9.207 9.207 0 0 1 48.6 39Z"></path><path d="M51.923 29.739a3.977 3.977 0 0 1-.153 2.112l3.528.642a8.125 8.125 0 0 0 .25-5.976zm-8.543-8.547-.127.079L45.618 26H47.5a4.444 4.444 0 0 1 .743.075l.375-6a7.841 7.841 0 0 0-5.238 1.117zm7.705 6.617 3.6-3.2-.137-.273a7.793 7.793 0 0 0-3.961-3.715l-.394 6.3a4.531 4.531 0 0 1 .892.888z"></path></svg>
